<?xml version="1.0" encoding="utf-8"?>
<!-- Generator: Adobe Illustrator 24.1.2, SVG Export Plug-In . SVG Version: 6.00 Build 0)  -->
<svg version="1.1" id="Layer_1" xmlns="http://www.w3.org/2000/svg" xmlns:xlink="http://www.w3.org/1999/xlink" x="0px" y="0px"
	 viewBox="0 0 100 100" style="enable-background:new 0 0 100 100;" xml:space="preserve">
<style type="text/css">
	.st0{fill:#54767C;}
</style>
<path class="st0" d="M50,0C22.4,0,0,22.4,0,50c0,14.8,6.5,27.9,16.7,37.1c1.9,1.7,3.8,3.3,6,4.7c3,2,6.3,3.6,9.8,4.9
	c5.5,2.1,11.4,3.3,17.6,3.3s12.1-1.3,17.6-3.3c3.4-1.3,6.7-2.9,9.8-4.9c2.1-1.4,4.1-3,6-4.7C93.5,77.9,100,64.8,100,50
	C100,22.4,77.6,0,50,0z M50,96.7c-10.2,0-19.6-3.4-27.3-9c0.1-6.3,4-12,9.8-14.4c1.9-0.8,4-1.2,6.1-1.2h22.8c1.1,0,2.1,0.1,3.1,0.3
	c1,0.2,2,0.5,2.9,0.9c1,0.4,1.9,0.9,2.8,1.5c4.3,2.9,7,7.7,7.1,12.9C69.6,93.3,60.2,96.7,50,96.7z M29.9,43.5c0-2.7,0.5-5.3,1.5-7.7
	c3.1-7.5,10.5-12.4,18.6-12.4c11.1,0,20.1,9.1,20.1,20.1c0,8-4.9,15.4-12.3,18.6c-5,2.1-10.7,2.1-15.6,0
	C34.8,58.9,29.9,51.5,29.9,43.5z M82.7,83.2c-1.6-6.9-6.2-12.8-12.9-15.6c-1.3-0.6-2.7-1-4.1-1.3c-0.8-0.2-1.6-0.3-2.4-0.3
	c8-4.7,12.9-13.4,12.9-22.6c0-14.3-11.8-26.2-26.2-26.2c-14.3,0-26.2,11.8-26.2,26.2c0,9.2,5,17.9,12.9,22.6
	c-2.3,0.2-4.5,0.7-6.5,1.6c-6.7,2.8-11.3,8.7-12.9,15.6C8.7,74.8,3.3,63,3.3,50C3.3,24.2,24.2,3.3,50,3.3S96.7,24.2,96.7,50
	C96.7,63,91.3,74.8,82.7,83.2z"/>
</svg>
