<?xml version="1.0" encoding="utf-8"?>
<!-- Generator: Adobe Illustrator 24.1.2, SVG Export Plug-In . SVG Version: 6.00 Build 0)  -->
<svg version="1.1" id="Layer_1" xmlns="http://www.w3.org/2000/svg" xmlns:xlink="http://www.w3.org/1999/xlink" x="0px" y="0px"
	 viewBox="0 0 100 100" style="enable-background:new 0 0 100 100;" xml:space="preserve">
<style type="text/css">
	.st0{fill:#54767C;}
</style>
<path class="st0" d="M3.8,26.8h72l5.4-19.6c0.4-1.8,1.9-3.1,3.8-3.1h11.2c2.1,0,3.8,1.7,3.8,3.8c0,2.1-1.7,3.8-3.8,3.8h-8.3
	l-17.4,65C71.8,77.3,73,78,74,79l0,0h0c1.8,1.8,2.9,4.3,2.9,7c0,2.7-1.1,5.2-2.9,7l-0.1,0.1c-1.8,1.7-4.2,2.8-6.8,2.8
	c-2.7,0-5.2-1.1-7-2.9c-1.8-1.8-2.9-4.3-2.9-7c0-1.9,0.6-3.7,1.5-5.3h-29c1,1.5,1.5,3.3,1.5,5.3c0,2.7-1.1,5.2-2.9,7
	c-1.8,1.8-4.3,2.9-7,2.9c-2.7,0-5.2-1.1-7-2.9l0,0h0c-1.8-1.8-2.9-4.3-2.9-7c0-1.9,0.6-3.8,1.5-5.3c-1.9-0.2-3.3-1.9-3.3-3.8
	c0-2.1,1.7-3.8,3.8-3.8h50.1l2.5-9.5h-55c-1.9,0-3.5-1.4-3.8-3.2L0.1,31.5c-0.5-2,0.7-4.1,2.7-4.6C3.2,26.8,3.5,26.8,3.8,26.8
	L3.8,26.8L3.8,26.8z M66.9,80.7c-0.2,0-0.3,0-0.5,0v0h-0.1c-1.2,0.1-2.3,0.7-3.1,1.5c-1,1-1.6,2.3-1.6,3.8c0,1.5,0.6,2.8,1.6,3.7
	c1,1,2.3,1.5,3.7,1.5c1.4,0,2.7-0.6,3.6-1.4l0.1-0.1c1-1,1.6-2.3,1.6-3.7c0-1.5-0.6-2.8-1.6-3.8h0C69.8,81.3,68.4,80.7,66.9,80.7
	L66.9,80.7L66.9,80.7z M21.9,80.8h-1.3c-1.2,0.1-2.2,0.6-3,1.4l-0.1,0.1c-1,1-1.6,2.3-1.6,3.8c0,1.5,0.6,2.8,1.6,3.7h0
	c1,1,2.3,1.5,3.8,1.5c1.5,0,2.8-0.6,3.7-1.5c1-1,1.6-2.3,1.6-3.7c0-1.5-0.6-2.8-1.6-3.8C24.2,81.5,23.1,80.9,21.9,80.8L21.9,80.8z
	 M73.7,34.4h-65L14,55.9h54.1l0,0L73.7,34.4z"/>
</svg>
