<?xml version="1.0" encoding="utf-8"?>
<!-- Generator: Adobe Illustrator 24.1.2, SVG Export Plug-In . SVG Version: 6.00 Build 0)  -->
<svg version="1.1" id="Layer_1" xmlns="http://www.w3.org/2000/svg" xmlns:xlink="http://www.w3.org/1999/xlink" x="0px" y="0px"
	 viewBox="0 0 100 100" style="enable-background:new 0 0 100 100;" xml:space="preserve">
<style type="text/css">
	.st0{fill:#54767C;}
</style>
<g>
	<path class="st0" d="M100,50.1c0-27.6-22.4-50-50-50S0,22.5,0,50.1c0,23.5,16.2,43.1,38,48.5V60.7h-9.1V46.8H38v-3.1
		c0-4.3,0.4-7.6,1.3-9.9c1.2-3.2,3.4-5.8,6.5-7.8c4.8-3,12.6-3.7,22.4-1.8l3,0.6l-2.6,14.7l-3-0.5c-2-0.3-3.8-0.5-5.5-0.5
		c-3.1,0-4.1,0.7-4.5,1c-0.2,0.2-1,1.2-1,5v2.3h11.9v13.9H54.4v39.2C80,97.7,100,76.2,100,50.1z"/>
</g>
</svg>
