<?xml version="1.0" encoding="utf-8"?>
<!-- Generator: Adobe Illustrator 24.1.2, SVG Export Plug-In . SVG Version: 6.00 Build 0)  -->
<svg version="1.1" id="Layer_1" xmlns="http://www.w3.org/2000/svg" xmlns:xlink="http://www.w3.org/1999/xlink" x="0px" y="0px"
	 viewBox="0 0 100 100" style="enable-background:new 0 0 100 100;" xml:space="preserve">
<style type="text/css">
	.st0{fill:#E4CC99;}
</style>
<g>
	<path class="st0" d="M48.6,74.7L48.6,74.7h19.3c1.5,0,2.7,1.2,2.7,2.7v0.1v5.1h24.9c2.5,0,4.5,2,4.5,4.5c0,2.5-2,4.5-4.5,4.5H70.6
		v5.2c0,1.5-1.2,2.7-2.7,2.7h-0.1H48.6c-1.5,0-2.7-1.2-2.7-2.7v-0.1v-5.1H4.5C2,91.5,0,89.5,0,87c0-2.5,2-4.5,4.5-4.5h41.5v-5.2
		C45.9,75.9,47.1,74.7,48.6,74.7L48.6,74.7z M95.5,8.5c2.5,0,4.5,2,4.5,4.5c0,2.5-2,4.5-4.5,4.5H78.7v5.1v0.1c0,1.5-1.2,2.7-2.7,2.7
		H56.8h-0.1c-1.5,0-2.7-1.2-2.7-2.7v-5.2H4.5C2,17.4,0,15.4,0,13c0-2.5,2-4.5,4.5-4.5h49.6V3.4V3.3c0-1.5,1.2-2.7,2.7-2.7H76H76
		c1.5,0,2.7,1.2,2.7,2.7v5.2H95.5L95.5,8.5z M4.5,54.5C2,54.5,0,52.5,0,50c0-2.5,2-4.5,4.5-4.5h16.8v-5.2c0-1.5,1.2-2.7,2.7-2.7H24
		h19.2c1.5,0,2.7,1.2,2.7,2.7v0.1v5.1h49.6c2.5,0,4.5,2,4.5,4.5c0,2.5-2,4.5-4.5,4.5H45.9v5.2c0,1.5-1.2,2.7-2.7,2.7h-0.1H24
		c-1.5,0-2.7-1.2-2.7-2.7v-0.1v-5.1H4.5L4.5,54.5z M73.3,6H59.4v13.9h13.9V6L73.3,6z M40.6,43H26.7v13.9h13.9V43L40.6,43z
		 M65.2,80.1H51.3V94h13.9V80.1z"/>
</g>
</svg>
