<?xml version="1.0" encoding="utf-8"?>
<!-- Generator: Adobe Illustrator 24.1.2, SVG Export Plug-In . SVG Version: 6.00 Build 0)  -->
<svg version="1.1" id="Layer_1" xmlns="http://www.w3.org/2000/svg" xmlns:xlink="http://www.w3.org/1999/xlink" x="0px" y="0px"
	 viewBox="0 0 100 100" style="enable-background:new 0 0 100 100;" xml:space="preserve">
<style type="text/css">
	.st0{fill:#67C4DA;}
</style>
<g>
	<path class="st0" d="M50,0c13.8,0,26.3,5.6,35.4,14.6l0.2,0.2c8.9,9,14.4,21.4,14.4,35.1c0,13.8-5.6,26.3-14.6,35.4l-0.2,0.2
		C76.1,94.5,63.7,100,50,100c-13.8,0-26.3-5.6-35.3-14.7l0,0C5.6,76.3,0,63.8,0,50c0-13.8,5.6-26.3,14.6-35.3l0,0l0,0l0,0
		C23.7,5.6,36.2,0,50,0L50,0z M83,17C74.6,8.6,62.9,3.3,50,3.3C37.1,3.3,25.4,8.6,17,17l0,0C8.6,25.4,3.3,37.1,3.3,50
		c0,12.9,5.2,24.5,13.7,33l0,0l0,0c8.4,8.4,20.1,13.7,33,13.7c12.8,0,24.4-5.2,32.8-13.5L83,83c8.4-8.4,13.7-20.1,13.7-33
		c0-12.8-5.1-24.4-13.5-32.8L83,17z"/>
	<path class="st0" d="M54.4,50l18.8-18.8c1.2-1.2,1.2-3.2,0-4.4c-1.2-1.2-3.2-1.2-4.4,0L50,45.6L31.2,26.8c-1.2-1.2-3.2-1.2-4.4,0
		c-1.2,1.2-1.2,3.2,0,4.4L45.6,50L26.8,68.8c-1.2,1.2-1.2,3.2,0,4.4c1.2,1.2,3.2,1.2,4.4,0L50,54.4l18.8,18.8c1.2,1.2,3.2,1.2,4.4,0
		s1.2-3.2,0-4.4L54.4,50z"/>
</g>
</svg>
