<?xml version="1.0" encoding="utf-8"?>
<!-- Generator: Adobe Illustrator 24.1.2, SVG Export Plug-In . SVG Version: 6.00 Build 0)  -->
<svg version="1.1" id="Layer_1" xmlns="http://www.w3.org/2000/svg" xmlns:xlink="http://www.w3.org/1999/xlink" x="0px" y="0px"
	 viewBox="0 0 100 100" style="enable-background:new 0 0 100 100;" xml:space="preserve">
<style type="text/css">
	.st0{fill:#54767C;}
</style>
<g>
	<path class="st0" d="M79.8,1.5H20.2C9.1,1.5,0,10.5,0,21.7v56.7c0,11.1,9.1,20.2,20.2,20.2h59.6c11.1,0,20.2-9.1,20.2-20.2V21.7
		C100,10.5,90.9,1.5,79.8,1.5z M91.2,78.3c0,6.3-5.1,11.4-11.4,11.4H20.2c-6.3,0-11.4-5.1-11.4-11.4V21.7c0-6.3,5.1-11.4,11.4-11.4
		h59.6c6.3,0,11.4,5.1,11.4,11.4V78.3z"/>
	<path class="st0" d="M50,22.9C35,22.9,22.9,35,22.9,50C22.9,65,35,77.1,50,77.1C65,77.1,77.1,65,77.1,50C77.1,35,65,22.9,50,22.9z
		 M50,68.3c-10.1,0-18.3-8.2-18.3-18.3c0-10.1,8.2-18.3,18.3-18.3c10.1,0,18.3,8.2,18.3,18.3C68.3,60.1,60.1,68.3,50,68.3z"/>
	<path class="st0" d="M77,17.3c-2.5,0-4.6,2.1-4.6,4.6c0,2.5,2.1,4.6,4.6,4.6s4.6-2.1,4.6-4.6C81.6,19.4,79.5,17.3,77,17.3z"/>
</g>
</svg>
