<?xml version="1.0" encoding="utf-8"?>
<!-- Generator: Adobe Illustrator 24.1.2, SVG Export Plug-In . SVG Version: 6.00 Build 0)  -->
<svg version="1.1" id="Layer_1" xmlns="http://www.w3.org/2000/svg" xmlns:xlink="http://www.w3.org/1999/xlink" x="0px" y="0px"
	 viewBox="0 0 234 100" style="enable-background:new 0 0 234 100;" xml:space="preserve">
<style type="text/css">
	.st0{fill:#F1C15D;}
	.st1{fill:#FFFFFF;}
</style>
<g>
	<g>
		<g>
			<path class="st0" d="M214.9,8.3c-10,0-18.1,8.1-18.1,18.1c0,10,8.1,18.1,18.1,18.1c10,0,18.1-8.1,18.1-18.1
				C233,16.4,224.9,8.3,214.9,8.3z M214.9,37.6c-6.2,0-11.3-5-11.3-11.3c0-6.2,5-11.3,11.3-11.3c6.2,0,11.3,5,11.3,11.3
				C226.2,32.6,221.1,37.6,214.9,37.6z"/>
		</g>
	</g>
	<g>
		<g>
			<path class="st0" d="M18.2,44.5c-0.1,0-0.1,0-0.2,0v0C18,44.5,18.2,44.5,18.2,44.5z"/>
		</g>
		<g>
			<path class="st0" d="M36.6,26.4c0-6-2.9-11.2-7.3-14.5c0,0-0.1-0.1-0.1-0.1c-0.1-0.1-0.2-0.1-0.3-0.2c-0.1,0-0.1-0.1-0.2-0.1
				c-0.1-0.1-0.2-0.1-0.2-0.2c-0.1-0.1-0.2-0.1-0.2-0.2c-0.1,0-0.1-0.1-0.2-0.1c-0.1-0.1-0.3-0.2-0.5-0.3c0,0,0,0,0,0
				c-0.2-0.1-0.4-0.2-0.6-0.3c0,0-0.1,0-0.1,0c-0.2-0.1-0.4-0.2-0.6-0.3c0,0-0.1,0-0.1,0c-0.2-0.1-0.4-0.2-0.6-0.3c0,0,0,0,0,0
				c-0.2-0.1-0.4-0.2-0.6-0.3c0,0-0.1,0-0.1,0c-0.2-0.1-0.4-0.2-0.6-0.2c0,0-0.1,0-0.1,0c-0.2-0.1-0.4-0.1-0.7-0.2c0,0-0.1,0-0.1,0
				c-0.2-0.1-0.5-0.1-0.7-0.2c0,0,0,0,0,0c-0.2-0.1-0.5-0.1-0.7-0.2c0,0,0,0,0,0c-0.2,0-0.5-0.1-0.7-0.1c0,0,0,0-0.1,0
				c-0.2,0-0.5-0.1-0.7-0.1c0,0,0,0-0.1,0c-0.6-0.1-1.1-0.1-1.7-0.1c-9.9,0-17.9,7.9-18.1,17.7c0,0,0,0.1,0,0.1c0,0.1,0,0.2,0,0.3
				c0,0,0,0,0,0c0,0,0,0,0,0c0,0.3,0,0.6,0,0.9c0,0.1,0,0.3,0,0.4c0,0,0,0,0,0c0,0.2,0,0.4,0.1,0.6c0.2,1.6,0.5,3.1,1.1,4.5
				c0,0.1,0.1,0.2,0.1,0.2c0,0,0,0,0,0.1c2.5,6.3,8.2,10.9,15.2,11.4c0.4,0,0.7,0,1.1,0.1v-6.8v-0.5c-2.1,0-4-0.5-5.6-1.3
				c-2-1.3-3.6-3.2-4.4-5.4h10.6H29h0.2h6.9h0.1c0.2-1.1,0.3-2.5,0.3-3.7c0,0,0-0.1,0-0.1C36.6,26.5,36.6,26.4,36.6,26.4z
				 M18.6,23.5h-11c1.3-4.8,5.7-8.4,10.9-8.4s9.6,3.6,10.9,8.4H18.6z"/>
		</g>
	</g>
	<g>
		<polygon class="st0" points="133.4,15 133.4,25.9 172.8,0.6 183.6,0.6 145.3,25.8 178.4,47.3 167.6,47.3 139.7,29.3 126.2,38.3 
			126.2,28.4 126.2,28.4 126.2,15 		"/>
	</g>
	<g>
		<g>
			<polygon class="st0" points="65.3,12.3 104.7,38.2 104.7,14.8 97.7,14.8 97.7,25.8 58.2,0.4 58.2,47.2 65.3,47.2 			"/>
		</g>
	</g>
</g>
<path class="st1" d="M192.7,60c-0.1-0.3-0.5-0.3-0.7-0.1c-0.4,0.1-0.8,0.4-1.2,0.7c-5,3.6-10,7-14.7,10.8c-0.4,0.3-0.5,0.7-1.1,0.5
	c-0.1-0.1-0.1-0.3-0.1-0.4c-0.4-3-1.7-5.5-3.9-7.6c-0.5-0.4-1.1-0.9-1.4-1.6c-1.1-1.1-1.4-2.5-1.1-3.9l1.2-3.3
	c0.4-0.8,0.4-2,1.7-2.1c0,0,0.4,0,1-0.4c0.6-0.4,0.7-2.3,0.2-2.6c-0.1-0.2-0.3-0.3-0.5-0.3c-1.2-0.3-2,0.3-2.6,1.2
	c-1.7,2.2-2.9,4.9-3.7,7.5c-0.5,1.7-0.1,3.2,0.9,4.5c0.8,0.9,1.6,1.7,2.4,2.5c1.3,1.4,2.2,3.2,2.6,5.1c0.3,0.8,0.3,1.7,0.4,2.6
	c0.3,1.1-0.1,1.7-0.8,2.4c-2.6,2.2-5,4.6-7.2,7.2c-0.9,1.1-1.8,2.1-2.5,3.4c-0.7,0.9-1.1,2-1.1,3c-0.1,1.6,0.6,2.9,2,3.3
	c-0.4,1.1-0.9,2.1-1.4,3.2c-1.5,2.2-2.2,1.9-2.2,1.9c-0.8-1.7-1.2-3.6-1.6-5.4c-0.7-3.6-1.1-7.1-1.3-10.7c-0.5-6.7-0.4-13.4,0.3-20
	c0.5-4.9,1.3-9.6,2.1-14.3c0.3-1.4,0.8-2.8,1.4-3.9c2.6-4.3,5-9,6.8-13.6c0.8-2,1.4-4.1,1.7-6.2c0-0.8,0-1.4-0.1-2.1
	c-0.3-1.2-1.3-1.7-2.4-1.3c-0.5,0.1-0.9,0.5-1.3,0.9c-0.5,0.8-1.1,1.6-1.4,2.5c-1.6,2.8-2.6,5.7-3.4,8.7c-1.1,3.7-2,7.5-2.8,11.3
	c-0.1,0.8-0.4,1.6-0.8,2.2l-7.1,11.5c-0.1,0.3-0.3,0.8-0.5,0.7c-0.7-0.4-1.1-0.8-1.4-1.2c-1.6-1.3-4.2-1.4-5.8,0.3
	c-0.7,0.7-1.2,1.3-1.6,2.1c-0.6,1-1.1,2.1-1.5,3.2c-5.3,6.7-10.1,12.3-10.5,12.3c-0.7-0.5-0.9-1.2-1.2-1.8c-0.4-1.1-0.7-2.2-1.1-3.3
	c-0.3-0.8-0.7-1.4-0.9-2.1c-0.4-0.8-1.2-1.2-2-1.2c-0.9-0.1-1.6,0.3-2.2,0.8c-0.8,0.8-1.4,1.8-1.8,2.8c-0.9,1.7-1.4,3.6-2,5.3
	l-2.8,10c-0.1,0.5-0.3,1.1-0.7,1.7c-0.4-0.8-0.3-1.4-0.3-2c0.1-5,0.3-10,0.4-15l0.4-12.1c0.1-2.1,0.1-4.2,0.3-6.3
	c0-0.5,0-1.2-0.1-1.8c0-0.4-0.3-0.5-0.7-0.5c-0.4,0-0.7,0.1-0.8,0.5c0,0.3-0.1,0.7-0.1,1.1c-0.5,3.6-0.7,7.1-0.9,10.6
	c-0.1,0.2-0.3,0.3-0.4,0.4c-1.7,1.6-3.3,3.3-5,4.9c-0.7,0.8-1.4,1.4-2.2,2c-0.3,0.1-0.7,0-0.8-0.4c-0.1-0.9-0.1-1.8-0.1-2.9
	c0-0.9,0-2-0.1-2.9c0-0.5-0.4-0.9-1.1-0.9c-0.5,0-1.1,0.1-1.3,0.7c-0.4,0.4-0.7,0.9-0.9,1.4c-2,3.3-4.1,6.5-6.3,9.6
	c-0.4,0.5-0.8,1.1-1.3,1.4c0,0.1-0.1,0.1-0.3,0.1c-0.1,0-0.3-0.1-0.3-0.3v-1.3c0.5-5.1,1.1-10.1,2.5-15c0.3-0.8-0.1-1.2-0.9-1.1
	c-0.7,0-0.9,0.4-1.2,0.9l-1,2.5c0,0,0,0,0,0c-1.8,0.1-6.7-0.1-8.4,0.1c-0.5,0-0.8-0.1-0.8-0.7c0-0.8,0-1.4-0.1-2.1
	C81.1,56,80.3,55,79,54.6c-1.6-0.5-3.2-0.3-4.5,0.8c-0.7,0.5-1.2,1.3-1.2,2.4c0.1,0.9,0,1.6-0.9,2c-0.2,0-0.3,0-0.4,0.1
	c-0.4,0.1-0.8,0.4-1.2,0.7c-5,3.6-10,7-14.7,10.8c-0.4,0.3-0.5,0.7-1.1,0.5c-0.1-0.1-0.1-0.3-0.1-0.4c-0.4-3-1.7-5.5-3.9-7.6
	c-0.5-0.4-1.1-0.9-1.4-1.6c-1.1-1.1-1.4-2.5-1.1-3.9l1.2-3.3c0.4-0.8,0.4-2,1.7-2.1c1.2-0.1,2.2,0.8,2.5,0.8c0.4,0,1.3-0.7,0.9-2
	c-0.5-1.3-2.3-2.5-3.3-2.2c0,0,0,0,0,0c-0.8,0-1.5,0.5-2,1.3c-1.7,2.2-2.9,4.9-3.7,7.5c-0.5,1.7-0.1,3.2,0.9,4.5
	c0.8,0.9,1.6,1.7,2.4,2.5c1.3,1.4,2.2,3.2,2.6,5.1c0.3,0.8,0.3,1.7,0.4,2.6c0.3,1.1-0.1,1.7-0.8,2.4c-2.6,2.2-5,4.6-7.2,7.2
	c-0.9,1.1-1.8,2.1-2.5,3.4c-0.7,0.9-1.1,2-1.1,3c-0.1,2,0.9,3.4,3,3.4c0.9,0,1.7-0.1,2.6-0.4c1.1-0.5,2-1.2,2.9-2
	c1.4-1.3,2.5-3,3.4-4.7c1.6-3.2,2.4-6.6,2.5-10.1c0-0.9,0.4-1.6,1.1-2.1c2.8-2.2,5.7-4.5,8.6-6.6c1.9-1.5,3.9-2.9,5.9-4.4
	c-1,1.8-1.6,3.7-1.7,5.8c-0.1,2.8,1.4,4.3,4.5,4.3c1.1,0.1,2.4-0.4,3.4-1.3c0.9-0.8,1.6-1.7,2.1-2.8c0.8-1.2,1.2-2.6,1.6-3.9
	c0.3-0.9,0.4-2,0.8-2.8c2.2-0.6,7-0.4,9-0.3c-1.1,4.1-1.8,8.3-2,12.7c0,0.4,0,0.9,0.1,1.3c0.1,1.2,0.7,1.6,1.7,1.7
	c1.1,0.1,2.1-0.3,2.9-0.9c0.9-0.7,1.6-1.6,2.2-2.5l4.2-6.7c0.3-0.4,0.4-0.9,1.1-1.3l0.4,2.2c0.4,1.6,1.4,2.2,2.9,1.7
	c0.5-0.1,1.2-0.4,1.6-0.8c0.8-0.5,1.4-1.1,2.1-1.7c1.3-1.4,2.6-2.8,3.9-4.2c0,0.4,0,0.8-0.1,1.2c-0.3,5.4-0.4,10.8-0.7,16.3
	c-0.1,2.9-0.3,5.8-0.1,8.7l0.4,3.6c0.1,0.8,0.7,1.1,1.3,1.2c0.9,0,1.4-0.3,1.7-0.9c0.4-0.8,0.5-1.6,0.8-2.5l4.3-15.7
	c0.4-1.8,1.1-3.7,2-5.3c0.3-0.5,0.5-1.2,1.1-1.2c0.7,0.1,0.5,0.8,0.7,1.3c0.3,0.8,0.4,1.6,0.7,2.4c0.3,1.1,0.5,2,1.1,2.8
	c0.9,1.4,2.5,2.1,4.2,1.6c2.3-1.8,5.9-6,8.7-9.7c0,0.1,0,0.1,0,0.2c-0.1,0.7,0,1.4,0.1,2.1c0.3,0.9,0.8,1.4,1.7,1.6
	c1.2,0.1,2.2-0.3,3.2-0.9c1.1-0.8,2.1-1.8,2.9-2.8c1.7-2,3-3.9,4.3-6.1c1.6-2.8,3.2-5.4,4.7-8c0.3-0.5,0.4-1.1,1.2-1.3
	c-0.1,0.4-0.1,0.7-0.1,0.9c-1.2,6.8-2,13.8-2,20.9c0,6.6,0.4,13,1.7,19.6c0.4,1.8,0.8,3.8,1.7,5.5c0.9,1.6,2.8,2,4.2,0.8
	c0.5-0.4,0.9-0.9,1.2-1.4c1-1.7,1.8-3.4,2.4-5.2c0.6-0.1,1.1-0.2,1.7-0.3c1.1-0.5,2-1.2,2.9-2c1.4-1.3,2.5-3,3.4-4.7
	c1.6-3.2,2.4-6.6,2.5-10.1c0-0.9,0.4-1.6,1.1-2.1c2.8-2.2,5.7-4.5,8.6-6.6c2.1-1.6,4.2-3.2,6.5-4.7l1.4-1.2
	C192.8,60.5,193,60.2,192.7,60z M166,21.9c0.5,0,0.5,0.4,0.5,0.7c0,0.9-0.3,1.8-0.5,2.8c-1.1,3.9-2.8,7.4-4.6,10.9
	c-0.1,0.3-0.3,0.5-0.5,0.4C161.9,31.5,163.2,26.5,166,21.9z M52.1,78.1c-0.5,3.3-1.6,6.7-3.6,9.6c-1.1,1.6-2.4,2.8-3.9,3.6
	c-1.1,0.5-1.6,0.3-2-0.8c-0.3-0.7-0.4-1.3-0.3-2c0.3-0.8,0.7-1.7,1.1-2.5c0.7-1.1,1.4-2,2.2-2.9c1.8-1.8,3.6-3.7,5.4-5.5l0.4-0.4
	c0.1-0.1,0.3-0.1,0.4-0.1c0.1,0,0.3,0.1,0.3,0.3V78.1z M75.6,68.9c-0.5,0.7-1.1,1.2-1.7,1.7c-0.5,0.3-1.1,0.1-1.3-0.3
	c-0.5-0.7-0.7-1.3-0.7-2.1c-0.1-0.9,0-1.8,0.1-2.6c0.4-1.2,0.8-2.4,1.1-3.6c0.1-0.4,0.4-0.9,0.8-1.2c0.1-0.1,0.4-0.3,0.7-0.1
	c0.7,0.3,1.3,0.7,2,0.8c0.7,0.1,1.3,0.1,2,0.3C77.9,64.4,77.1,66.8,75.6,68.9z M79,59.4c-0.1,1.1-0.4,1.2-1.3,1.2
	c-1.7,0-2.6-2.4-2-3.7c0-0.1,0.1-0.3,0.1-0.4c0.4-0.7,0.9-1.2,1.7-1.2c0.8,0.1,1.1,0.8,1.3,1.4c0.1,0.5,0.1,1.1,0.3,1.4
	C79,58.8,79,59.2,79,59.4z M146.8,60.8c-1.7,2.5-3.4,5-5.7,7c-0.1,0.3-0.4,0.5-0.8,0.5c-0.3-0.3-0.3-0.7-0.3-1.1
	c0.1-3.4,1.2-6.6,3-9.3c0.1-0.3,0.3-0.4,0.5-0.7c0.7-0.7,1.1-0.8,1.8-0.3c0.4,0.4,0.9,0.8,1.2,1.3C147,59,147.3,60,146.8,60.8z
	 M172.2,78.1c-0.5,3.3-1.6,6.7-3.6,9.6c-1.1,1.6-2.4,2.8-3.9,3.6c-1.1,0.5-1.6,0.3-2-0.8c-0.3-0.7-0.4-1.3-0.3-2
	c0.3-0.8,0.7-1.7,1.1-2.5c0.7-1.1,1.4-2,2.2-2.9c1.8-1.8,3.6-3.7,5.4-5.5l0.4-0.4c0.1-0.1,0.3-0.1,0.4-0.1c0.1,0,0.3,0.1,0.3,0.3
	V78.1z"/>
</svg>
