<?xml version="1.0" encoding="utf-8"?>
<!-- Generator: Adobe Illustrator 24.1.2, SVG Export Plug-In . SVG Version: 6.00 Build 0)  -->
<svg version="1.1" id="Layer_1" xmlns="http://www.w3.org/2000/svg" xmlns:xlink="http://www.w3.org/1999/xlink" x="0px" y="0px"
	 viewBox="0 0 100 100" style="enable-background:new 0 0 100 100;" xml:space="preserve">
<style type="text/css">
	.st0{fill:#54767C;}
</style>
<g>
	<path class="st0" d="M91.2,23.8c-11.9,0-21.5-9.6-21.5-21.5c0-0.1,0-0.2,0-0.2c0,0,0,0,0,0V0.6h-17v32.9v6.9v28
		c0,6.7-4.5,12.4-10.7,14.1c-1.2,0.3-2.5,0.5-3.9,0.5c-8.1,0-14.6-6.5-14.6-14.6c0-8.1,6.5-14.6,14.6-14.6c1.3,0,2.7,0.2,3.9,0.5V37
		c-1.3-0.2-2.6-0.2-3.9-0.2c-17.4,0-31.6,14.1-31.6,31.6S20.6,99.9,38,99.9c1.3,0,2.6-0.1,3.9-0.2c4.6-0.6,8.9-2.1,12.6-4.4
		c9-5.6,15-15.5,15-26.9V33.4v-1.6c4.4,5.6,11.3,9.2,18.9,9.2c1.6,0,3.2-0.2,4.8-0.5V23.6C92.6,23.7,91.9,23.8,91.2,23.8z"/>
</g>
</svg>
