<?xml version="1.0" encoding="utf-8"?>
<!-- Generator: Adobe Illustrator 24.1.2, SVG Export Plug-In . SVG Version: 6.00 Build 0)  -->
<svg version="1.1" id="Layer_1" xmlns="http://www.w3.org/2000/svg" xmlns:xlink="http://www.w3.org/1999/xlink" x="0px" y="0px"
	 viewBox="0 0 100 100" style="enable-background:new 0 0 100 100;" xml:space="preserve">
<style type="text/css">
	.st0{fill:#54767C;}
</style>
<path class="st0" d="M85.4,13.9H14.6C6.5,13.9,0,20.4,0,28.5v43.1c0,8.1,6.5,14.6,14.6,14.6h70.8c8.1,0,14.6-6.5,14.6-14.6V28.5
	C100,20.4,93.5,13.9,85.4,13.9z M77.8,50.2c0,1-0.3,2-0.9,2.8c-0.6,0.9-3.6,2.5-3.6,2.5l-31.6,17c-0.8,0.3-1.5,0.5-2.2,0.5
	c-1.9,0-3.7-1-4.6-2.7c-0.4-0.7-0.6-1.6-0.6-2.5l0-1.9l0-18.7l0-13.1l0-1.9c0-0.9,0.2-1.7,0.6-2.5c1.3-2.2,4.2-3.3,6.6-2.2
	c0,0,28.1,15.1,31.3,16.8c0.7,0.4,3.4,1.9,4,2.7c0.6,0.9,0.9,1.9,0.9,2.9L77.8,50.2z"/>
</svg>
